<?xml version="1.0" encoding="utf-8"?>
<!-- Generator: Adobe Illustrator 27.5.0, SVG Export Plug-In . SVG Version: 6.00 Build 0)  -->
<svg version="1.1" id="Layer_1" xmlns="http://www.w3.org/2000/svg" xmlns:xlink="http://www.w3.org/1999/xlink" x="0px" y="0px"
	 viewBox="0 0 500 500" style="enable-background:new 0 0 500 500;" xml:space="preserve">
<g>
	<g>
		<g>
			<g>
				<g>
					<g>
						<path style="fill:#FBE366;" d="M342.449,260.012l0.283,2.879c-0.021-0.168,7.383-0.386,7.383-0.386l0.004-2.896
							C350.119,259.61,342.441,259.836,342.449,260.012z"/>
					</g>
				</g>
			</g>
			<g>
				<g>
					<g>
						<path style="fill:#FBE366;" d="M331.129,262.256l0.927,2.748c0,0,0.439-0.136,1.087-0.328c0.652-0.189,1.513-0.504,2.42-0.644
							c1.788-0.361,3.589-0.726,3.589-0.726l-0.455-2.859c0,0-1.903,0.381-3.81,0.767c-0.956,0.156-1.883,0.48-2.588,0.693
							C331.6,262.112,331.129,262.256,331.129,262.256z"/>
					</g>
				</g>
			</g>
			<g>
				<g>
					<g>
						<path style="fill:#FBE366;" d="M320.699,267.337l1.673,2.375c-0.139-0.234,6.267-3.671,6.353-3.479l-1.181-2.649
							C327.445,263.383,320.543,267.091,320.699,267.337z"/>
					</g>
				</g>
			</g>
			<g>
				<g>
					<g>
						<path style="fill:#FBE366;" d="M312.388,275.438l2.285,1.788c0,0,1.029-1.505,2.313-2.789
							c1.173-1.399,2.592-2.539,2.592-2.539l-1.895-2.203c0,0-1.526,1.23-2.793,2.731
							C313.504,273.826,312.388,275.438,312.388,275.438z"/>
					</g>
				</g>
			</g>
			<g>
				<g>
					<g>
						<path style="fill:#FBE366;" d="M306.597,285.433l2.633,1.202c0,0,0.759-1.686,1.624-3.314
							c0.439-0.796,0.882-1.604,1.206-2.198c0.365-0.574,0.607-0.964,0.607-0.964l-2.436-1.559c0,0-0.258,0.41-0.652,1.034
							c-0.349,0.632-0.82,1.489-1.284,2.342C307.381,283.686,306.597,285.433,306.597,285.433z"/>
					</g>
				</g>
			</g>
			<g>
				<g>
					<g>
						<path style="fill:#FBE366;" d="M302.582,295.531l2.379,1.85c0,0,0.677-1.821,1.357-3.655c0.714-1.821,1.423-3.638,1.423-3.638
							l-2.58-1.333c0,0-0.656,1.686-1.325,3.376C303.214,293.829,302.582,295.531,302.582,295.531z"/>
					</g>
				</g>
			</g>
			<g>
				<g>
					<g>
						<path style="fill:#FBE366;" d="M298.644,305.576l1.998,2.535c0,0,0.828-1.743,1.546-3.544
							c0.763-1.784,1.432-3.609,1.432-3.609l-2.264-2.104c0,0-0.648,1.69-1.3,3.384
							C299.407,303.931,298.644,305.576,298.644,305.576z"/>
					</g>
				</g>
			</g>
		</g>
		<g>
			<g>
				<g>
					<g>
						<path style="fill:#FBE366;" d="M293.181,314.846l1.489,3.035c0,0,0.349-0.336,0.759-0.927
							c0.426-0.586,0.992-1.366,1.554-2.145c0.513-0.816,1.013-1.641,1.399-2.256c0.369-0.615,0.57-1.05,0.57-1.05l-1.833-2.728
							c0,0-0.857,1.596-1.801,3.146c-0.525,0.742-1.05,1.48-1.436,2.038C293.505,314.53,293.181,314.846,293.181,314.846z"/>
					</g>
				</g>
			</g>
			<g>
				<g>
					<g>
						<path style="fill:#FBE366;" d="M284.728,321.392l0.853,3.363c0,0,0.435-0.217,1.083-0.537
							c0.648-0.324,1.526-0.722,2.305-1.308c1.665-1.005,3.064-2.334,3.068-2.334l-1.296-3.166c0,0-1.3,1.271-2.855,2.227
							c-0.718,0.558-1.542,0.943-2.15,1.243C285.13,321.191,284.728,321.392,284.728,321.392z"/>
					</g>
				</g>
			</g>
			<g>
				<g>
					<g>
						<path style="fill:#FBE366;" d="M274.269,323.787l0.144,3.49c0,0,1.919-0.193,3.843-0.398c0.948-0.201,1.891-0.398,2.604-0.553
							c0.718-0.132,1.177-0.275,1.177-0.275l-0.628-3.433c-0.004,0-0.435,0.139-1.103,0.271c-0.66,0.139-1.551,0.332-2.436,0.521
							C276.065,323.595,274.269,323.787,274.269,323.787z"/>
					</g>
				</g>
			</g>
			<g>
				<g>
					<g>
						<path style="fill:#FBE366;" d="M263.514,323.188l-0.574,3.454c0,0,0.467,0.103,1.182,0.246
							c0.721,0.062,1.685,0.144,2.649,0.226c0.964,0.078,1.928,0.16,2.65,0.217c0.722-0.004,1.206,0,1.206,0l0.095-3.499
							c0,0-0.452,0-1.137,0.004c-0.668-0.057-1.575-0.127-2.481-0.201c-0.898-0.078-1.805-0.156-2.473-0.213
							C263.957,323.282,263.514,323.188,263.514,323.188z"/>
					</g>
				</g>
			</g>
			<g>
				<g>
					<g>
						<path style="fill:#FBE366;" d="M253.818,318.754l-1.251,3.22c-0.058,0.074,1.567,1.12,3.208,2.137
							c0.771,0.59,1.751,0.8,2.395,1.128c0.668,0.275,1.116,0.455,1.116,0.455l0.808-3.392c0,0-0.418-0.176-1.046-0.438
							c-0.599-0.308-1.514-0.509-2.24-1.071C255.279,319.813,253.761,318.828,253.818,318.754z"/>
					</g>
				</g>
			</g>
			<g>
				<g>
					<g>
						<path style="fill:#FBE366;" d="M246.842,310.584l-1.813,2.797c0,0,1.099,1.583,2.194,3.166
							c1.263,1.456,2.531,2.912,2.531,2.912l1.452-3.105c0,0-1.169-1.386-2.338-2.764
							C247.85,312.085,246.842,310.584,246.842,310.584z"/>
					</g>
				</g>
			</g>
			<g>
				<g>
					<g>
						<path style="fill:#FBE366;" d="M242.059,300.925l-2.264,2.198c0,0,0.755,1.788,1.575,3.544
							c0.755,1.792,1.747,3.449,1.747,3.449l1.977-2.613c0,0-0.911-1.571-1.596-3.257
							C242.752,302.598,242.059,300.925,242.059,300.925z"/>
					</g>
				</g>
			</g>
		</g>
		<g>
			<g>
				<g>
					<g>
						<path style="fill:#FBE366;" d="M238.618,290.7l-2.592,1.468c0,0,0.541,1.875,1.161,3.72c0.578,1.862,1.247,3.687,1.247,3.687
							l2.383-1.973c0,0-0.607-1.71-1.14-3.441C239.114,292.443,238.618,290.7,238.618,290.7z"/>
					</g>
				</g>
			</g>
			<g>
				<g>
					<g>
						<path style="fill:#FBE366;" d="M235.972,280.22l-2.814,0.693c0,0,0.447,1.891,0.898,3.785c0.439,1.907,0.947,3.79,0.947,3.79
							l2.678-1.214c0,0-0.472-1.747-0.877-3.515C236.391,281.992,235.972,280.22,235.972,280.22z"/>
					</g>
				</g>
			</g>
			<g>
				<g>
					<g>
						<polygon style="fill:#FBE366;" points="233.766,269.302 230.915,269.827 232.379,277.263 235.214,276.656 						"/>
					</g>
				</g>
			</g>
			<g>
				<g>
					<g>
						<polygon style="fill:#FBE366;" points="231.85,258.269 228.996,258.736 230.263,266.185 233.113,265.68 						"/>
					</g>
				</g>
			</g>
			<g>
				<g>
					<g>
						<polygon style="fill:#FBE366;" points="230.083,247.191 227.228,247.642 228.401,255.098 231.26,254.63 						"/>
					</g>
				</g>
			</g>
			<g>
				<g>
					<g>
						<polygon style="fill:#FBE366;" points="228.343,236.092 225.485,236.551 226.658,243.991 229.517,243.544 						"/>
					</g>
				</g>
			</g>
			<g>
				<g>
					<g>
						<polygon style="fill:#FBE366;" points="226.49,225.001 223.643,225.506 224.894,232.913 227.749,232.449 						"/>
					</g>
				</g>
			</g>
		</g>
		<g>
			<g>
				<g>
					<g>
						<path style="fill:#FBE366;" d="M224.369,213.931l-2.822,0.578c0,0,0.373,1.837,0.747,3.679
							c0.349,1.85,0.685,3.691,0.685,3.691l2.855-0.529c0,0-0.341-1.858-0.689-3.716
							C224.759,215.781,224.369,213.931,224.369,213.931z"/>
					</g>
				</g>
			</g>
			<g>
				<g>
					<g>
						<path style="fill:#FBE366;" d="M221.797,202.91l-2.801,0.755c0,0,0.467,1.809,0.931,3.617
							c0.427,1.821,0.849,3.642,0.849,3.642l2.822-0.628c0,0-0.426-1.854-0.857-3.7C222.269,204.76,221.797,202.91,221.797,202.91z"
							/>
					</g>
				</g>
			</g>
			<g>
				<g>
					<g>
						<path style="fill:#FBE366;" d="M218.397,192.074l-2.707,1.005c0,0,0.66,1.727,1.239,3.499
							c0.546,1.788,1.095,3.564,1.095,3.564l2.777-0.816c0,0-0.558-1.825-1.124-3.646
							C219.082,193.862,218.397,192.074,218.397,192.074z"/>
					</g>
				</g>
			</g>
			<g>
				<g>
					<g>
						<path style="fill:#FBE366;" d="M213.57,181.611l-2.453,1.55c0,0,0.861,1.6,1.715,3.208c0.824,1.624,1.518,3.343,1.518,3.351
							l2.662-1.149c0,0.004-0.718-1.772-1.596-3.511C214.497,183.333,213.57,181.611,213.57,181.611z"/>
					</g>
				</g>
			</g>
			<g>
				<g>
					<g>
						<path style="fill:#FBE366;" d="M206.064,172.78l-1.903,2.186c0,0,0.349,0.291,0.861,0.738
							c0.484,0.475,1.271,0.972,1.817,1.702c0.586,0.689,1.181,1.386,1.62,1.903c0.472,0.492,0.701,0.894,0.701,0.894l2.285-1.784
							c0,0-0.242-0.426-0.747-0.964c-0.48-0.558-1.111-1.3-1.751-2.047c-0.59-0.783-1.439-1.32-1.961-1.833
							C206.433,173.096,206.064,172.78,206.064,172.78z"/>
					</g>
				</g>
			</g>
			<g>
				<g>
					<g>
						<path style="fill:#FBE366;" d="M196.327,166.546l-1.337,2.563c0,0,0.423,0.173,1.017,0.538c0.59,0.353,1.39,0.82,2.182,1.284
							c1.632,0.898,3.08,1.977,3.08,1.977l1.686-2.366c0,0-1.596-1.165-3.282-2.092c-0.82-0.488-1.653-0.98-2.276-1.341
							C196.778,166.726,196.327,166.546,196.327,166.546z"/>
					</g>
				</g>
			</g>
			<g>
				<g>
					<g>
						<path style="fill:#FBE366;" d="M185.548,162.362l-0.673,2.814c0,0,1.743,0.509,3.486,1.017c1.698,0.673,3.4,1.337,3.4,1.337
							l1.161-2.646c0,0-1.805-0.71-3.622-1.423C187.43,162.915,185.548,162.362,185.548,162.362z"/>
					</g>
				</g>
			</g>
		</g>
		<g>
			<g>
				<g>
					<g>
						<path style="fill:#FBE366;" d="M173.838,161.784l0.435,2.863c0,0,0.439-0.078,1.103-0.176c0.656-0.07,1.559-0.07,2.444-0.111
							c1.784-0.021,3.577,0.189,3.577,0.189l0.361-2.875c0,0-1.973-0.23-3.962-0.213c-0.989,0.05-1.985,0.058-2.728,0.136
							C174.33,161.706,173.838,161.784,173.838,161.784z"/>
					</g>
				</g>
			</g>
			<g>
				<g>
					<g>
						<path style="fill:#FBE366;" d="M162.874,166.062l1.608,2.412c0,0,0.373-0.25,0.923-0.624c0.59-0.32,1.382-0.742,2.161-1.165
							c0.808-0.378,1.645-0.673,2.26-0.939c0.607-0.267,1.062-0.32,1.05-0.345l-0.845-2.764c0,0-0.5,0.082-1.189,0.394
							c-0.689,0.287-1.628,0.619-2.526,1.046c-0.878,0.472-1.756,0.939-2.408,1.296
							C163.285,165.791,162.874,166.062,162.874,166.062z"/>
					</g>
				</g>
			</g>
			<g>
				<g>
					<g>
						<path style="fill:#FBE366;" d="M154.446,174.121l2.293,1.759c0,0,0.275-0.369,0.689-0.906
							c0.455-0.512,1.046-1.194,1.645-1.887c1.255-1.3,2.609-2.498,2.609-2.498l-1.887-2.19c0,0-1.485,1.304-2.838,2.715
							c-0.644,0.742-1.288,1.476-1.768,2.034C154.745,173.723,154.446,174.121,154.446,174.121z"/>
					</g>
				</g>
			</g>
			<g>
				<g>
					<g>
						<path style="fill:#FBE366;" d="M148.539,184.014l2.617,1.214c-0.14-0.07,3.396-6.517,3.523-6.427l-2.428-1.571
							c0,0-1.038,1.645-1.989,3.331C149.356,182.271,148.539,184.014,148.539,184.014z"/>
					</g>
				</g>
			</g>
			<g>
				<g>
					<g>
						<path style="fill:#FBE366;" d="M144.627,194.797l2.793,0.755c0,0,0.492-1.78,1.054-3.536c0.595-1.751,1.271-3.466,1.271-3.466
							l-2.699-1.062c0,0-0.701,1.793-1.321,3.617C145.135,192.939,144.631,194.797,144.627,194.797z"/>
					</g>
				</g>
			</g>
			<g>
				<g>
					<g>
						<path style="fill:#FBE366;" d="M142.58,206.113l2.887,0.201c0,0,0.139-1.805,0.43-3.625c0.279-1.825,0.669-3.622,0.669-3.622
							l-2.834-0.611c0,0-0.406,1.887-0.693,3.794C142.727,204.153,142.58,206.113,142.58,206.113z"/>
					</g>
				</g>
			</g>
			<g>
				<g>
					<g>
						<path style="fill:#FBE366;" d="M143.203,217.553l2.88-0.291l-0.529-4.951c-0.094-0.808-0.148-1.633-0.185-2.449l-2.895,0.082
							c0.041,0.878,0.094,1.764,0.201,2.637L143.203,217.553z"/>
					</g>
				</g>
			</g>
		</g>
		<g>
			<g>
				<g>
					<g>
						<polygon style="fill:#FBE366;" points="144.147,228.693 147.034,228.496 146.436,220.949 143.552,221.211 						"/>
					</g>
				</g>
			</g>
			<g>
				<g>
					<g>
						<path style="fill:#FBE366;" d="M144.704,239.849l2.892-0.082c0,0-0.061-1.895-0.131-3.794
							c-0.099-1.879-0.193-3.782-0.193-3.782l-2.892,0.164c0,0,0.095,1.874,0.193,3.749
							C144.639,237.974,144.704,239.849,144.704,239.849z"/>
					</g>
				</g>
			</g>
			<g>
				<g>
					<g>
						<path style="fill:#FBE366;" d="M144.787,251.005l2.892,0.049c0,0,0.012-1.895,0.029-3.794c-0.016-1.899-0.033-3.79-0.033-3.79
							l-2.892,0.041c0,0,0.016,1.874,0.029,3.745C144.803,249.131,144.787,251.005,144.787,251.005z"/>
					</g>
				</g>
			</g>
			<g>
				<g>
					<g>
						<path style="fill:#FBE366;" d="M144.286,262.133l2.884,0.221c0,0,0.111-1.895,0.229-3.794c0.139-1.895,0.173-3.79,0.173-3.79
							l-2.896-0.106c0,0-0.037,1.874-0.164,3.736C144.397,260.27,144.286,262.133,144.286,262.133z"/>
					</g>
				</g>
			</g>
			<g>
				<g>
					<g>
						<path style="fill:#FBE366;" d="M143.035,273.174l2.863,0.439c0,0,0.258-1.887,0.504-3.77c0.267-1.891,0.427-3.786,0.427-3.786
							l-2.883-0.287c0,0-0.152,1.866-0.418,3.708C143.294,271.328,143.035,273.174,143.035,273.174z"/>
					</g>
				</g>
			</g>
			<g>
				<g>
					<g>
						<path style="fill:#FBE366;" d="M140.824,284.022l2.806,0.726c0,0,0.492-1.85,0.878-3.716c0.439-1.858,0.758-3.741,0.758-3.741
							l-2.842-0.525c-0.004,0.004-0.32,1.837-0.747,3.642C141.304,282.238,140.824,284.022,140.824,284.022z"/>
					</g>
				</g>
			</g>
			<g>
				<g>
					<g>
						<path style="fill:#FBE366;" d="M137.346,294.453l2.666,1.124c0,0,0.82-1.747,1.394-3.581c0.628-1.813,1.222-3.634,1.222-3.634
							l-2.764-0.841c0,0-0.586,1.756-1.181,3.499C138.13,292.792,137.346,294.453,137.346,294.453z"/>
					</g>
				</g>
			</g>
		</g>
		<g>
			<g>
				<g>
					<g>
						<path style="fill:#FBE366;" d="M132.191,303.993l2.326,1.743c0-0.004,1.103-1.624,2.124-3.277
							c0.915-1.718,1.825-3.433,1.825-3.433l-2.592-1.292c0,0-0.853,1.616-1.71,3.22
							C133.175,302.475,132.191,303.993,132.191,303.993z"/>
					</g>
				</g>
			</g>
			<g>
				<g>
					<g>
						<path style="fill:#FBE366;" d="M124.874,311.868l1.747,2.33c0.172,0.209,5.722-5.3,5.562-5.451l-2.153-1.944
							C130.177,306.934,125.037,312.065,124.874,311.868z"/>
					</g>
				</g>
			</g>
			<g>
				<g>
					<g>
						<path style="fill:#FBE366;" d="M115.415,316.95l1.013,2.727c0,0,0.464-0.16,1.157-0.41c0.677-0.263,1.637-0.509,2.478-1.021
							c1.722-0.906,3.453-1.813,3.453-1.813l-1.517-2.498c0,0-1.612,0.849-3.208,1.685c-0.783,0.488-1.669,0.693-2.305,0.948
							C115.85,316.802,115.415,316.95,115.415,316.95z"/>
					</g>
				</g>
			</g>
			<g>
				<g>
					<g>
						<path style="fill:#FBE366;" d="M104.841,318.849l0.193,2.887c0,0,1.944-0.139,3.897-0.292
							c1.928-0.262,3.831-0.721,3.835-0.726l-0.751-2.806c0,0-1.764,0.427-3.56,0.664
							C106.65,318.714,104.841,318.849,104.841,318.849z"/>
					</g>
				</g>
			</g>
			<g>
				<g>
					<g>
						<path style="fill:#FBE366;" d="M94.013,318.053l-0.472,2.855c0,0,1.907,0.287,3.806,0.582
							c1.927,0.168,3.876,0.217,3.876,0.217l0.07-2.895c0,0-1.821-0.045-3.638-0.197C95.834,318.332,94.013,318.053,94.013,318.053z
							"/>
					</g>
				</g>
			</g>
			<g>
				<g>
					<g>
						<path style="fill:#FBE366;" d="M83.316,315.457l-0.861,2.764c-0.062,0.172,7.391,1.993,7.391,1.993l0.624-2.83
							C90.47,317.384,83.275,315.633,83.316,315.457z"/>
					</g>
				</g>
			</g>
			<g>
				<g>
					<g>
						<path style="fill:#FBE366;" d="M72.943,311.573l-1.128,2.674c0,0,1.759,0.73,3.515,1.464c0.865,0.394,1.768,0.71,2.453,0.923
							c0.677,0.234,1.128,0.386,1.128,0.386l0.964-2.728c0,0-0.443-0.147-1.099-0.373c-0.669-0.205-1.542-0.525-2.392-0.903
							C74.666,312.299,72.943,311.573,72.943,311.573z"/>
					</g>
				</g>
			</g>
		</g>
	</g>
	<g>
		<g>
			<g>
				<path style="fill:#CBE9F4;" d="M356.887,321.773c-0.468,11.255-9.991,19.966-21.238,19.478
					c-11.263-0.488-19.987-9.991-19.519-21.255c0.504-11.246,10.02-19.958,21.258-19.482
					C348.65,300.999,357.375,310.51,356.887,321.773z"/>
			</g>
		</g>
		<g>
			<path style="fill:#CBE9F4;" d="M407.447,309.559c-6.419-5.718-9.819-15.438-8.544-23.678
				c0.795-5.152,15.286-14.122,15.286-14.122l-21.615-23.49c0,0-10.143,13.745-15.327,14.101
				c-7.936,0.578-16.907-3.494-21.734-10.119c-3.064-4.216,0.906-20.791,0.906-20.791l-31.931-1.374c0,0,2.502,16.874-0.894,20.787
				c-4.709,5.414-13.104,8.166-19.962,6.792c-5.111-1.013-13.371-15.918-13.371-15.918l-24.458,20.545
				c0,0,13.24,10.729,13.375,15.918c0.213,8.72-4.417,18.342-11.73,23.551c-4.25,3.027-20.807-1.157-20.807-1.157l-1.788,31.906
				c0,0,16.874-2.317,20.738,1.136c6.423,5.746,9.831,15.467,8.56,23.695c-0.792,5.143-15.307,14.109-15.307,14.109l21.615,23.49
				c0,0,10.135-13.732,15.336-14.093c7.912-0.566,16.915,3.515,21.746,10.11c3.06,4.225-0.882,20.787-0.882,20.787l31.906,1.379
				c0,0-2.526-16.866,0.87-20.787c4.729-5.402,13.141-8.166,19.999-6.788c5.09,1.03,13.363,15.923,13.363,15.923l24.454-20.549
				c0,0-13.232-10.734-13.388-15.926c-0.201-8.712,4.426-18.326,11.739-23.547c4.249-3.006,20.819,1.177,20.819,1.177l1.764-31.898
				C428.184,310.728,411.335,313.016,407.447,309.559z M334.262,373.744c-29.187-1.259-51.836-25.946-50.573-55.141
				c1.268-29.187,25.947-51.828,55.141-50.576c29.171,1.268,51.852,25.951,50.568,55.141
				C388.145,352.359,363.473,375.003,334.262,373.744z"/>
		</g>
		<g>
			<g>
				<path style="fill:#CBE9F4;" d="M376.935,323.352c-0.955,22.313-19.818,39.621-42.139,38.645
					c-22.3-0.964-39.605-19.818-38.641-42.119c0.956-22.333,19.823-39.625,42.135-38.674
					C360.602,282.177,377.907,301.044,376.935,323.352z"/>
			</g>
		</g>
	</g>
	<g>
		<g>
			<path style="fill:#FBC6B4;" d="M276.685,177.911c0.34-2.502-1.194-9.88-8.023-12.009c-9.13-2.838-28.28,0.874-37.213-8.839
				c-8.958-9.758-6.243-18.244-5.189-24.175c1.079-5.943,4.299-7.801,4.524-11.32c0.246-3.54-3.95-3.634-7.957,5.475
				c-1.919,4.352-13.941,24.728-5.43,38.28C228.54,183.091,274.564,192.68,276.685,177.911z"/>
		</g>
		<g>
			<path style="fill:#EDA503;" d="M278.481,173.264c0,0,0.591,10.471-14.95,11.784c-15.549,1.313-22.501-0.271-22.501-0.271
				s-3.81-9.462,0.808-24.794C241.838,159.983,279.765,158.424,278.481,173.264z"/>
		</g>
	</g>
	<g>
		<path style="fill:#FFB502;" d="M303.919,165.939l-0.024-0.053c-5.242-2.834-11.956-3.474-17.108-4.012
			c-11.345-1.189-29.872,0.394-33.407,20.266c-1.152,6.55-1.488,16.131-0.898,25.913c0.098,2.129,0.225,4.303,0.5,6.435
			c0.906,9.549-1.977,15.967,1.431,20.84c9.897,14.151,67.204,26.123,57.988,8.523c-0.181-0.402-2.24-6.226,1.882-7.985
			c-2.895-8.137-2.592-17.871-3.925-24.63c-0.385-2.014-0.656-4.044-0.8-6.152c-0.381-4.827-0.004-9.951,1.362-15.935
			C314.025,175.864,310.026,169.363,303.919,165.939z"/>
	</g>
	<g>
		<g>
			<g>
				<path style="fill:#FBC6B4;" d="M231.469,301.446c11.038,11.689,29.031,24.737,35.142,33.699
					c0.977,1.427,1.108,2.079-2.912,6.198c-4.052,4.089,2.157,4.335,10.405-0.373c8.256-4.729-18.486-42.152-32.968-58.624
					C228.483,267.936,218.643,287.882,231.469,301.446z"/>
			</g>
		</g>
		<g>
			<path style="fill:#FFB502;" d="M275.47,334.997c0,0-5.578,7.112-11.771,6.345c0,0-7.572,5.644-1.235,5.057
				C268.822,345.8,279.786,342.285,275.47,334.997z"/>
		</g>
	</g>
	<g>
		<path style="fill:#1C2745;" d="M295.962,179.843c-1.981,9.877-6.903,25.061,15.787,37.094c0,0-39.203,47.381-62.651,23.125
			c0,0,3.105-42.845,8.847-60.026c1.648-4.93,5.562-18.461,16.275-17.911c0,0-16,24.252-8.831,30.363
			c7.17,6.111,13.56,0.554,16.46-4.327c4.663-7.846,14.979-24.819,14.979-24.819l6.275,2.153
			C303.103,165.496,297.652,171.434,295.962,179.843z"/>
	</g>
	<g>
		<g>
			<path style="fill:#F7B2A0;" d="M295.634,147.74c0,0-6.378,6.952-1.997,13.109c4.508,6.321-22.222,11.337-20.155,6.739
				c2.649-5.939,6.94-8.605,6.14-16.628L295.634,147.74z"/>
		</g>
		<g>
			<path style="fill:#FBC6B4;" d="M287.468,128.175c-6.805,3.306-19.212,23.276-15.213,29.786c1.776,2.826,12.379,3.56,21.603-4.052
				c3.794-3.097,9.27-9.471,7.612-18.096C300.712,131.904,295.355,124.332,287.468,128.175z"/>
		</g>
		<g>
			<path style="fill:#1D1B3A;" d="M281.299,129.131c-2.005,2.367-1.87,3.092,5.951,6.903c7.805,3.827,9.393,3.708,7.945,5.398
				c-4.249,4.992,1.952,5.685-3.191,11.599c-5.131,5.927,3.052,3.917,7.834-0.755c0.939-0.947,6.115-5.381,4.786-15.143
				C303.086,125.727,288.719,120.46,281.299,129.131z"/>
		</g>
	</g>
	<g>
		<path style="fill:#EDA503;" d="M290.113,143.794c0,0-18.887-8.974-16.299-16.722c1.599-4.766,16.053-0.226,16.053-0.226
			L290.113,143.794z"/>
	</g>
	<g>
		<path style="fill:#FFB502;" d="M280.282,130.152c0.689,8.039,5.623,12.576,21.71,20.032c0,0,11.132-13.666,1.591-23.617
			C295.158,117.795,279.847,125.021,280.282,130.152z"/>
	</g>
	<g>
		<path style="fill:#1C2745;" d="M254.684,230.571c0,0-46.438,15.648-54.223,29.105c-7.785,13.461,60.465,75.12,60.465,75.12
			s10.914-7.194,8.404-16.3c-9.413-34.133-13.146-45.207-13.146-45.207l45.015-24.224L254.684,230.571z"/>
	</g>
	<g>
		<g>
			<g>
				<path style="fill:#FBC6B4;" d="M275.561,327.068c1.69,15.988,8.08,37.275,7.506,48.103c-0.09,1.723-0.377,2.334-6.079,3.166
					c-5.697,0.796-0.914,4.754,8.507,6.017c9.429,1.243,10.865-44.728,9.34-66.614C293.509,298.616,273.6,308.505,275.561,327.068z"
					/>
			</g>
		</g>
		<g>
			<path style="fill:#FFB502;" d="M290.203,380.434c0,0-8.757,2.272-13.215-2.096c0,0-9.437-0.103-4.044,3.265
				C278.362,384.991,289.211,388.838,290.203,380.434z"/>
		</g>
	</g>
	<g>
		<path style="fill:#1C2745;" d="M311.749,216.937c0,0,5.02,19.232,5.164,45.409c0.164,31.545-20.717,104.676-20.717,104.676
			s0.828,2.646-17.218-3.441c-4.864-1.649-7.289-107.531-7.289-107.531l11.919-27.075L311.749,216.937z"/>
	</g>
	<g>
		<path style="fill:#FFFFFF;" d="M289.982,366.915l-0.984-0.361c18.322-50.17,14.247-134.88,14.204-135.729l1.05-0.057
			C304.294,231.621,308.38,316.548,289.982,366.915z"/>
	</g>
	<g>
		<g>
			<polygon style="fill:#464F72;" points="317.489,418.656 248.404,248.364 208.48,248.364 276.92,417.082 273.028,418.656 
				202.245,244.164 251.234,244.164 321.382,417.082 			"/>
		</g>
		<g>
			<rect x="236.149" y="320.059" style="fill:#464F72;" width="44.457" height="4.2"/>
		</g>
		<g>
			<rect x="245.049" y="340.899" style="fill:#464F72;" width="44.457" height="4.2"/>
		</g>
		<g>
			<rect x="252.744" y="361.94" style="fill:#464F72;" width="44.456" height="4.2"/>
		</g>
		<g>
			<rect x="262.395" y="383.395" style="fill:#464F72;" width="44.461" height="4.2"/>
		</g>
		<g>
			
				<rect x="136.44" y="354.335" transform="matrix(0.3514 -0.9362 0.9362 0.3514 -202.6451 420.3731)" style="fill:#464F72;" width="131.242" height="4.201"/>
		</g>
		<g>
			
				<rect x="182.572" y="357.548" transform="matrix(0.3515 -0.9362 0.9362 0.3515 -175.7425 465.5984)" style="fill:#464F72;" width="131.246" height="4.201"/>
		</g>
	</g>
	<g>
		<g>
			<path style="fill:#FFCF03;" d="M240.648,147.272c0,7.945-6.444,14.388-14.388,14.388c-7.949,0-14.384-6.444-14.384-14.388
				c0-7.941,6.435-14.384,14.384-14.384C234.205,132.888,240.648,139.332,240.648,147.272z"/>
		</g>
		<g>
			<rect x="223.537" y="78.177" style="fill:#464F72;" width="5.434" height="38.53"/>
		</g>
		<g>
			<rect x="219.587" y="107.815" style="fill:#6D76A1;" width="13.338" height="17.785"/>
		</g>
		<g>
			<path style="fill:#C1E4FA;" d="M226.256,116.211c-18.416,0-33.345,14.934-33.345,33.346h66.687
				C259.597,131.145,244.668,116.211,226.256,116.211z"/>
		</g>
	</g>
	<g>
		<g>
			<path style="fill:#FBC6B4;" d="M310.724,174.876c-0.484-2.367-3.716-7.006-10.525-6.673c-9.126,0.415-25.089,9.971-36.258,4.155
				c-11.201-5.837-11.525-14.331-12.51-19.999c-0.96-5.669,1.308-8.38,0.381-11.612c-0.935-3.257-4.741-1.973-5.365,7.489
				c-0.296,4.528-4.467,26.714,7.571,36.106C269.79,196.655,313.628,188.796,310.724,174.876z"/>
		</g>
		<g>
			<path style="fill:#EDA503;" d="M310.752,172.555c0,0,3.929,9.208-9.602,15.434c-13.502,6.214-20.254,7.075-20.254,7.075
				s-6.489-7.268-7.334-22.505C273.563,172.558,307.073,158.831,310.752,172.555z"/>
		</g>
	</g>
	<g>
		<g>
			<path style="fill:#64B4D7;" d="M181.762,216.162c-4.893,0-8.867-3.979-8.867-8.864s3.974-8.859,8.867-8.859
				c4.889,0,8.863,3.975,8.863,8.859S186.651,216.162,181.762,216.162z M181.762,202.389c-2.707,0-4.914,2.202-4.914,4.909
				s2.207,4.906,4.914,4.906c2.707,0,4.909-2.199,4.909-4.906S184.469,202.389,181.762,202.389z"/>
		</g>
	</g>
	<g>
		<g>
			<g>
				<rect x="127.088" y="356.394" style="fill:#27355C;" width="36.36" height="2.81"/>
			</g>
		</g>
	</g>
	<g>
		<g>
			<g>
				<rect x="141.284" y="347.215" style="fill:#27355C;" width="20.045" height="2.806"/>
			</g>
		</g>
	</g>
</g>
</svg>
